<?xml version="1.0" encoding="UTF-8" standalone="no"?>
<!-- Generator: Adobe Illustrator 16.0.0, SVG Export Plug-In . SVG Version: 6.00 Build 0)  -->

<svg
   xmlns:dc="http://purl.org/dc/elements/1.1/"
   xmlns:cc="http://creativecommons.org/ns#"
   xmlns:rdf="http://www.w3.org/1999/02/22-rdf-syntax-ns#"
   xmlns:svg="http://www.w3.org/2000/svg"
   xmlns="http://www.w3.org/2000/svg"
   xmlns:sodipodi="http://sodipodi.sourceforge.net/DTD/sodipodi-0.dtd"
   xmlns:inkscape="http://www.inkscape.org/namespaces/inkscape"
   version="1.1"
   id="Слой_1"
   x="0px"
   y="0px"
   width="125.816px"
   height="53.859px"
   viewBox="37.601 9.377 125.816 53.859"
   enable-background="new 37.601 9.377 125.816 53.859"
   xml:space="preserve"
   sodipodi:docname="nts_ico.svg"
   inkscape:version="0.92.4 (5da689c313, 2019-01-14)"><metadata
   id="metadata43"><rdf:RDF><cc:Work
       rdf:about=""><dc:format>image/svg+xml</dc:format><dc:type
         rdf:resource="http://purl.org/dc/dcmitype/StillImage" /></cc:Work></rdf:RDF></metadata><defs
   id="defs41" /><sodipodi:namedview
   pagecolor="#ffffff"
   bordercolor="#666666"
   borderopacity="1"
   objecttolerance="10"
   gridtolerance="10"
   guidetolerance="10"
   inkscape:pageopacity="0"
   inkscape:pageshadow="2"
   inkscape:window-width="1306"
   inkscape:window-height="768"
   id="namedview39"
   showgrid="false"
   inkscape:zoom="4.6085359"
   inkscape:cx="60.709432"
   inkscape:cy="23.603788"
   inkscape:window-x="236"
   inkscape:window-y="113"
   inkscape:window-maximized="0"
   inkscape:current-layer="Слой_1" />
<path
   fill="#FFFFFF"
   d="M57.934,9.377c-9.357,0-16.943,7.586-16.943,16.943c0,0.832,0.061,1.646,0.177,2.442  c1.776-1.517,4.078-2.442,6.601-2.442c0-5.615,4.552-10.168,10.165-10.168c5.617,0,10.17,4.553,10.17,10.168  c0,5.616-4.553,10.168-10.17,10.168c0,2.521-0.923,4.824-2.439,6.602c0.795,0.115,1.611,0.179,2.439,0.179  c9.36,0,16.945-7.588,16.945-16.946C74.879,16.963,67.294,9.377,57.934,9.377"
   id="path2"
   style="fill:#666666" />
<path
   fill="#FFCE34"
   d="M41.168,28.764c-2.183,1.865-3.567,4.631-3.567,7.725c0,5.616,4.552,10.17,10.168,10.17  c3.094,0,5.859-1.387,7.725-3.566C48.09,42.021,42.237,36.168,41.168,28.764"
   id="path4"
   style="fill:#ffcc00" />
<path
   fill="#A7A9AC"
   d="M47.769,26.321c-2.523,0-4.825,0.926-6.601,2.442c1.07,7.405,6.922,13.257,14.327,14.327  c1.516-1.777,2.439-4.079,2.439-6.602C52.32,36.489,47.769,31.937,47.769,26.321"
   id="path6" />
<path
   fill="#FFCE34"
   d="M57.934,36.489V26.321H47.769C47.769,31.937,52.32,36.489,57.934,36.489"
   id="path8"
   style="fill:#ffcc00" />
<path
   fill="#FFFFFF"
   d="M88.598,60.372c-2.161,0-3.971-1.672-3.971-5.238s1.81-5.237,3.971-5.237c0.9,0,1.715,0.226,2.18,0.535  l-0.408,0.979c-0.337-0.238-0.955-0.449-1.658-0.449c-1.557,0-2.836,1.308-2.836,4.158c0,2.852,1.279,4.17,2.836,4.17  c0.703,0,1.321-0.211,1.658-0.449l0.408,0.996C90.313,60.147,89.51,60.372,88.598,60.372"
   id="path10"
   style="fill:#666666" />
<path
   fill="#FFFFFF"
   d="M97.793,56.243l-5.168,0.744c0.127,1.615,1.094,2.43,2.541,2.43c0.758,0,1.559-0.182,2.064-0.463  l0.363,0.885c-0.545,0.31-1.486,0.533-2.483,0.533c-2.263,0-3.624-1.461-3.624-3.943c0-2.331,1.25-3.934,3.301-3.934  c1.868,0,3.02,1.222,3.02,3.244C97.805,55.893,97.805,56.06,97.793,56.243 M94.773,53.393c-1.333,0-2.19,1.066-2.218,2.779  l4.128-0.59C96.668,54.096,95.91,53.393,94.773,53.393"
   id="path12"
   style="fill:#666666" />
<path
   fill="#FFFFFF"
   d="M101.923,60.302c-0.521,0-1.068-0.099-1.35-0.198v3.133h-1.18V53.028c0.491-0.267,1.489-0.533,2.441-0.533  c2.305,0,3.598,1.517,3.598,3.86C105.434,58.672,104.184,60.302,101.923,60.302 M101.853,53.435c-0.506,0-1.037,0.126-1.278,0.253  v5.49c0.225,0.1,0.8,0.195,1.263,0.195c1.588,0,2.416-1.277,2.416-3.02C104.253,54.601,103.411,53.435,101.853,53.435"
   id="path14"
   style="fill:#666666" />
<path
   fill="#FFFFFF"
   d="M109.577,60.372c-0.897,0-1.825-0.196-2.485-0.533v-6.811c0.675-0.337,1.588-0.535,2.457-0.535  c1.869,0,2.963,0.773,2.963,2.008c0,0.971-0.758,1.604-1.444,1.759v0.013c0.729,0.156,1.698,0.73,1.698,1.938  C112.766,59.614,111.572,60.372,109.577,60.372 M109.548,53.28c-0.49,0-1.053,0.127-1.349,0.268v2.4h1.308  c0.715,0,1.039-0.055,1.377-0.293c0.31-0.213,0.506-0.619,0.506-1.084C111.39,53.756,110.714,53.28,109.548,53.28 M110.898,56.946  c-0.352-0.182-0.66-0.252-1.35-0.252H108.2v2.625c0.31,0.153,0.901,0.27,1.377,0.27c1.265,0,2.036-0.521,2.036-1.436  C111.613,57.605,111.361,57.184,110.898,56.946"
   id="path16"
   style="fill:#666666" />
<path
   fill="#FFFFFF"
   d="M119.558,60.216v-5.308c0-0.449,0.027-0.969,0.027-0.969h-0.027c0,0-0.213,0.491-0.465,0.869l-3.469,5.406  h-1.166v-7.567h1.055v5.167c0,0.449-0.028,0.997-0.028,0.997h0.028c0,0,0.225-0.491,0.463-0.868l3.396-5.296h1.223v7.567  L119.558,60.216L119.558,60.216z"
   id="path18"
   style="fill:#666666" />
<path
   fill="#FFFFFF"
   d="M125.437,60.372c-1.616,0-3.245-1.166-3.245-3.944c0-2.782,1.629-3.935,3.245-3.935  c0.758,0,1.432,0.211,1.882,0.521l-0.408,0.855c-0.338-0.238-0.842-0.395-1.348-0.395c-1.082,0-2.162,0.814-2.162,2.936  s1.095,2.963,2.162,2.963c0.506,0,1.01-0.168,1.348-0.404l0.408,0.883C126.854,60.175,126.194,60.372,125.437,60.372"
   id="path20"
   style="fill:#666666" />
<path
   fill="#FFFFFF"
   d="M134.41,56.243l-5.166,0.744c0.127,1.615,1.094,2.43,2.541,2.43c0.756,0,1.559-0.182,2.063-0.463  l0.365,0.885c-0.547,0.31-1.486,0.533-2.484,0.533c-2.262,0-3.622-1.461-3.622-3.943c0-2.331,1.25-3.934,3.3-3.934  c1.868,0,3.018,1.222,3.018,3.244C134.423,55.893,134.423,56.06,134.41,56.243 M131.392,53.393c-1.334,0-2.189,1.066-2.219,2.779  l4.129-0.59C133.287,54.096,132.53,53.393,131.392,53.393"
   id="path22"
   style="fill:#666666" />
<path
   fill="#FFFFFF"
   d="M138.143,60.372c-0.97,0-1.966-0.211-2.642-0.535l0.408-0.813c0.504,0.254,1.334,0.436,2.119,0.436  c1.123,0,2.051-0.448,2.051-1.379c0-0.785-0.688-1.373-2.205-1.373h-1.011V55.92h0.968c1.32,0,1.981-0.49,1.981-1.277  c0-0.857-0.8-1.25-1.755-1.25c-0.688,0-1.477,0.168-1.995,0.434l-0.379-0.799c0.646-0.324,1.614-0.533,2.526-0.533  c1.646,0,2.782,0.744,2.782,2.049c0,0.845-0.591,1.49-1.462,1.687v0.028c0.9,0.197,1.742,0.826,1.742,1.908  C141.275,59.614,139.912,60.372,138.143,60.372"
   id="path24"
   style="fill:#666666" />
<polygon
   fill="#FFFFFF"
   points="93.543,43.269 93.543,36.036 88.346,36.036 88.346,43.269 85.047,43.269 85.047,26.325   88.346,26.325 88.346,33.323 93.543,33.323 93.543,26.325 96.842,26.325 96.842,43.269 "
   id="polygon26"
   style="fill:#666666" />
<path
   fill="#FFFFFF"
   d="M104.393,43.547c-1.591,0-3.347-0.325-4.494-0.909V30.655h3.137v4.705c0.375-0.095,1.054-0.189,1.568-0.189  c3.512,0,5.405,1.568,5.405,4.189C110.011,42.05,107.998,43.547,104.393,43.547 M104.324,37.206c-0.423,0-0.982,0.07-1.288,0.164  v3.885c0.306,0.143,0.845,0.26,1.356,0.26c1.64,0,2.482-0.703,2.482-2.154C106.875,37.98,106.08,37.206,104.324,37.206"
   id="path28"
   style="fill:#666666" />
<path
   fill="#FFFFFF"
   d="M122.71,43.547c-3.185,0-4.938-2.293-5.267-5.475h-2.246v5.195h-3.136V30.655h3.136v5.008h2.246  c0.374-3.088,2.131-5.289,5.267-5.289c3.582,0,5.359,2.809,5.359,6.576S126.292,43.547,122.71,43.547 M122.71,32.831  c-1.545,0-2.316,1.568-2.316,4.095s0.771,4.095,2.316,4.095s2.293-1.568,2.293-4.095C125.003,34.4,124.255,32.831,122.71,32.831"
   id="path30"
   style="fill:#666666" />
<path
   fill="#FFFFFF"
   d="M149.858,37.183l-8.121,1.101c0.28,1.851,1.638,2.762,3.487,2.762c1.263,0,2.619-0.326,3.512-0.795  l0.911,2.389c-1.056,0.537-2.833,0.911-4.658,0.911c-4.166,0-6.364-2.714-6.364-6.601c0-3.861,2.174-6.576,5.852-6.576  c3.486,0,5.431,2.295,5.431,5.734C149.905,36.458,149.905,36.808,149.858,37.183 M144.404,32.689c-1.662,0-2.833,1.218-2.88,3.582  l5.289-0.728C146.814,33.65,145.878,32.689,144.404,32.689"
   id="path32"
   style="fill:#666666" />
<path
   fill="#FFFFFF"
   d="M159.933,43.269l-1.78-3.838c-0.515-1.147-1.451-2.062-2.761-2.062v5.898h-3.139V30.655h3.139v5.547h0.047  l4.143-5.547h3.65l-4.609,5.616c1.24,0.515,2.127,1.498,2.764,2.81l2.031,4.188H159.933z"
   id="path34"
   style="fill:#666666" />
<polygon
   fill="#FFFFFF"
   points="134.998,29.084 134.998,43.269 131.695,43.269 131.695,29.084 127.436,29.084 127.436,26.325   139.233,26.325 139.233,29.084 "
   id="polygon36"
   style="fill:#666666" />
</svg>